<?xml version="1.0" encoding="UTF-8" standalone="no"?>
<!-- Created with Inkscape (http://www.inkscape.org/) -->

<svg
   xmlns:dc="http://purl.org/dc/elements/1.1/"
   xmlns:cc="http://creativecommons.org/ns#"
   xmlns:rdf="http://www.w3.org/1999/02/22-rdf-syntax-ns#"
   xmlns:svg="http://www.w3.org/2000/svg"
   xmlns="http://www.w3.org/2000/svg"
   xmlns:xlink="http://www.w3.org/1999/xlink"
   xmlns:sodipodi="http://sodipodi.sourceforge.net/DTD/sodipodi-0.dtd"
   xmlns:inkscape="http://www.inkscape.org/namespaces/inkscape"
   width="175.1488mm"
   height="175.14883mm"
   viewBox="0 0 620.606 620.6061"
   id="svg6540"
   version="1.1"
   inkscape:version="0.91 r13725"
   sodipodi:docname="qtg-icon9.svg"
   inkscape:export-filename="/home/michi/gitkraken/qtg-icons/qtg-icon6.png"
   inkscape:export-xdpi="30"
   inkscape:export-ydpi="30">
  <defs
     id="defs6542">
    <linearGradient
       inkscape:collect="always"
       id="linearGradient4202">
      <stop
         style="stop-color:#c9e5ff;stop-opacity:0.24038461"
         offset="0"
         id="stop4204" />
      <stop
         style="stop-color:#ffffff;stop-opacity:0"
         offset="1"
         id="stop4206" />
    </linearGradient>
    <linearGradient
       inkscape:collect="always"
       id="linearGradient7990">
      <stop
         style="stop-color:#ffffff;stop-opacity:0.0627451"
         offset="0"
         id="stop7992" />
      <stop
         style="stop-color:#ffffff;stop-opacity:0"
         offset="1"
         id="stop7994" />
    </linearGradient>
    <linearGradient
       inkscape:collect="always"
       id="linearGradient7172">
      <stop
         style="stop-color:#006ea4;stop-opacity:1"
         offset="0"
         id="stop7174" />
      <stop
         style="stop-color:#14b1ff;stop-opacity:1"
         offset="1"
         id="stop7176" />
    </linearGradient>
    <filter
       inkscape:collect="always"
       style="color-interpolation-filters:sRGB"
       id="filter4823"
       x="-0.0070251953"
       width="1.0140504"
       y="-0.010443816"
       height="1.0208876">
      <feGaussianBlur
         inkscape:collect="always"
         stdDeviation="1.1540438"
         id="feGaussianBlur4825" />
    </filter>
    <linearGradient
       inkscape:collect="always"
       xlink:href="#linearGradient7172"
       id="linearGradient7178"
       x1="813.0127"
       y1="892.36218"
       x2="310"
       y2="392.36221"
       gradientUnits="userSpaceOnUse"
       gradientTransform="translate(12.363633,-79.998577)" />
    <filter
       inkscape:label="Film Grain"
       inkscape:menu="Image Effects"
       inkscape:menu-tooltip="Adds a small scale graininess"
       style="color-interpolation-filters:sRGB"
       id="filter7816">
      <feTurbulence
         type="fractalNoise"
         numOctaves="3"
         baseFrequency="1"
         seed="0"
         result="result0"
         id="feTurbulence7818" />
      <feColorMatrix
         result="result4"
         values="0"
         type="saturate"
         id="feColorMatrix7820" />
      <feComposite
         in="SourceGraphic"
         in2="result4"
         operator="arithmetic"
         k1="1.25"
         k2="0.5"
         k3="0.5"
         result="result2"
         id="feComposite7822"
         k4="0" />
      <feBlend
         result="result5"
         mode="normal"
         in="result2"
         in2="SourceGraphic"
         id="feBlend7824" />
      <feComposite
         in="result5"
         in2="SourceGraphic"
         operator="in"
         result="result3"
         id="feComposite7826" />
    </filter>
    <linearGradient
       inkscape:collect="always"
       xlink:href="#linearGradient7990"
       id="linearGradient7996"
       x1="60"
       y1="212.3622"
       x2="680"
       y2="832.36218"
       gradientUnits="userSpaceOnUse"
       gradientTransform="translate(0.31636582,-153.81747)" />
    <filter
       inkscape:label="Cubes"
       inkscape:menu="Scatter"
       inkscape:menu-tooltip="Scattered cubes; adjust the Morphology primitive to vary size"
       style="color-interpolation-filters:sRGB"
       id="filter7998">
      <feTurbulence
         baseFrequency="0.14"
         numOctaves="1"
         type="fractalNoise"
         id="feTurbulence8000" />
      <feColorMatrix
         values="1 0 0 0 0 0 1 0 0 0 0 0 1 0 0 0 0 0 6 -3.5 "
         result="result5"
         id="feColorMatrix8002" />
      <feComposite
         in2="result5"
         operator="in"
         in="SourceGraphic"
         result="result6"
         id="feComposite8004" />
      <feMorphology
         result="result3"
         radius="5"
         operator="dilate"
         in="result6"
         id="feMorphology8006" />
      <feDisplacementMap
         result="result4"
         scale="0"
         yChannelSelector="A"
         xChannelSelector="R"
         in="result3"
         in2="result3"
         id="feDisplacementMap8008" />
      <feComposite
         in2="result4"
         operator="arithmetic"
         result="result2"
         k1="1"
         k3="1"
         id="feComposite8010"
         k2="0"
         k4="0" />
      <feBlend
         mode="darken"
         in="result2"
         in2="result2"
         id="feBlend8012" />
      <feConvolveMatrix
         order="3 3"
         kernelMatrix="2 0 0 0 1 0 0 0 -1 "
         targetX="1"
         targetY="1"
         divisor="2"
         edgeMode="duplicate"
         id="feConvolveMatrix8014" />
    </filter>
    <linearGradient
       inkscape:collect="always"
       xlink:href="#linearGradient4202"
       id="linearGradient4208"
       x1="77"
       y1="78.849617"
       x2="473.47552"
       y2="422.59479"
       gradientUnits="userSpaceOnUse" />
    <linearGradient
       inkscape:collect="always"
       xlink:href="#linearGradient4202"
       id="linearGradient4214"
       gradientUnits="userSpaceOnUse"
       x1="194"
       y1="196.84961"
       x2="282.47552"
       y2="351.59479" />
    <linearGradient
       inkscape:collect="always"
       xlink:href="#linearGradient4202"
       id="linearGradient4218"
       gradientUnits="userSpaceOnUse"
       x1="194"
       y1="196.84961"
       x2="446.47552"
       y2="457.59479" />
    <linearGradient
       inkscape:collect="always"
       xlink:href="#linearGradient4202"
       id="linearGradient4228"
       gradientUnits="userSpaceOnUse"
       x1="17.303596"
       y1="332.28821"
       x2="613.48267"
       y2="610.68518" />
    <linearGradient
       inkscape:collect="always"
       xlink:href="#linearGradient4202"
       id="linearGradient4232"
       gradientUnits="userSpaceOnUse"
       x1="17.303596"
       y1="332.28821"
       x2="544.18622"
       y2="582.40094" />
    <linearGradient
       inkscape:collect="always"
       xlink:href="#linearGradient4202"
       id="linearGradient4306"
       gradientUnits="userSpaceOnUse"
       x1="-16.717821"
       y1="-26.596136"
       x2="162.26738"
       y2="319.06787" />
    <filter
       style="color-interpolation-filters:sRGB;"
       inkscape:label="Drop Shadow"
       id="filter5695">
      <feFlood
         flood-opacity="0.266667"
         flood-color="rgb(0,0,0)"
         result="flood"
         id="feFlood5697" />
      <feComposite
         in="flood"
         in2="SourceGraphic"
         operator="in"
         result="composite1"
         id="feComposite5699" />
      <feGaussianBlur
         in="composite1"
         stdDeviation="20"
         result="blur"
         id="feGaussianBlur5701" />
      <feOffset
         dx="14.7"
         dy="37.7"
         result="offset"
         id="feOffset5703" />
      <feComposite
         in="SourceGraphic"
         in2="offset"
         operator="over"
         result="composite2"
         id="feComposite5705" />
    </filter>
  </defs>
  <sodipodi:namedview
     id="base"
     pagecolor="#ffffff"
     bordercolor="#666666"
     borderopacity="1.0"
     inkscape:pageopacity="0.0"
     inkscape:pageshadow="2"
     inkscape:zoom="0.70710678"
     inkscape:cx="82.093038"
     inkscape:cy="474.57671"
     inkscape:document-units="px"
     inkscape:current-layer="layer2"
     showgrid="false"
     inkscape:window-width="1920"
     inkscape:window-height="1056"
     inkscape:window-x="0"
     inkscape:window-y="24"
     inkscape:window-maximized="1"
     fit-margin-top="0"
     fit-margin-left="0"
     fit-margin-right="0"
     fit-margin-bottom="0"
     showguides="true">
    <inkscape:grid
       type="xygrid"
       id="grid7088"
       originx="-61.74423"
       originy="-215.87804" />
  </sodipodi:namedview>
  <metadata
     id="metadata6545">
    <rdf:RDF>
      <cc:Work
         rdf:about="">
        <dc:format>image/svg+xml</dc:format>
        <dc:type
           rdf:resource="http://purl.org/dc/dcmitype/StillImage" />
        <dc:title></dc:title>
      </cc:Work>
    </rdf:RDF>
  </metadata>
  <g
     inkscape:groupmode="layer"
     id="layer2"
     inkscape:label="Background"
     transform="translate(-61.744232,-215.87807)">
    <path
       style="opacity:0.98799995;fill:url(#linearGradient4228);fill-opacity:1;stroke:none;stroke-width:20;stroke-linecap:round;stroke-linejoin:round;stroke-miterlimit:4;stroke-dasharray:none;stroke-opacity:1"
       d="m 620.60547,298.14074 c 0,0 -55.40046,30.70849 -95.51031,95.689 -34.1004,55.24482 -49.32537,121.05461 -34.7083,225.77573 l 130.21861,1 z"
       transform="translate(61.744232,215.87807)"
       id="path4230"
       inkscape:connector-curvature="0"
       sodipodi:nodetypes="csccc" />
    <path
       sodipodi:nodetypes="csccc"
       inkscape:connector-curvature="0"
       id="path4226"
       transform="translate(61.744232,215.87807)"
       d="m 620.60547,247.88412 c 0,0 -82.67922,18.60709 -147.21058,96.66134 C 400.9006,432.23131 370.41088,497.0143 363.40053,620.60547 l 257.20494,0 z"
       style="opacity:0.98799995;fill:url(#linearGradient4232);fill-opacity:1;stroke:none;stroke-width:20;stroke-linecap:round;stroke-linejoin:round;stroke-miterlimit:4;stroke-dasharray:none;stroke-opacity:1" />
    <path
       style="opacity:0.98799995;fill:url(#linearGradient4208);fill-opacity:1;stroke:none;stroke-width:20;stroke-linecap:round;stroke-linejoin:round;stroke-miterlimit:4;stroke-dasharray:none;stroke-opacity:1"
       d="m 620.60547,214.09375 c 0,0 -147.93153,9.06294 -241.96289,107.11719 C 299.89526,403.32726 247.43502,489.17 233.99999,620.60547 l 386.60548,0 z"
       transform="translate(61.744232,215.87807)"
       id="path4192"
       inkscape:connector-curvature="0"
       sodipodi:nodetypes="csccc" />
    <path
       sodipodi:nodetypes="csccc"
       inkscape:connector-curvature="0"
       id="path4212"
       transform="translate(61.744232,215.87807)"
       d="m 623.60547,182.09375 c 0,0 -240.71277,11.70937 -362.96289,136.11719 C 196.14306,383.84887 81,511.33558 69,620.60547 l 551.60547,0 z"
       style="opacity:0.98799995;fill:url(#linearGradient4218);fill-opacity:1;stroke:none;stroke-width:20;stroke-linecap:round;stroke-linejoin:round;stroke-miterlimit:4;stroke-dasharray:none;stroke-opacity:1" />
    <path
       style="opacity:0.98799995;fill:url(#linearGradient4214);fill-opacity:1;stroke:none;stroke-width:20;stroke-linecap:round;stroke-linejoin:round;stroke-miterlimit:4;stroke-dasharray:none;stroke-opacity:1"
       d="m 623.60547,171.09375 c 0,0 -110.98339,20.62651 -345.96289,89.11719 C 120.42577,306.03573 -1.9999999,431.5078 -1.9999999,431.5078 L 0,620.60547 l 620.60547,0 z"
       transform="translate(61.744232,215.87807)"
       id="path4216"
       inkscape:connector-curvature="0"
       sodipodi:nodetypes="cscccc" />
    <path
       sodipodi:nodetypes="cscccc"
       inkscape:connector-curvature="0"
       id="path4302"
       transform="translate(61.744232,215.87807)"
       d="m 623.60547,143.23589 c 0,0 -149.54754,-5.78559 -301.29384,12.46033 -137.5116,16.53434 -324.3116299,93.96591 -324.3116299,93.96591 L 0,620.60547 l 620.60547,0 z"
       style="opacity:0.98799995;fill:url(#linearGradient4214);fill-opacity:1;stroke:none;stroke-width:20;stroke-linecap:round;stroke-linejoin:round;stroke-miterlimit:4;stroke-dasharray:none;stroke-opacity:1" />
    <path
       style="opacity:0.98799995;fill:url(#linearGradient4306);fill-opacity:1;stroke:none;stroke-width:20;stroke-linecap:round;stroke-linejoin:round;stroke-miterlimit:4;stroke-dasharray:none;stroke-opacity:1"
       d="m 623.60547,121.23589 c 0,0 -196.70956,-13.08602 -348.29384,6.46033 C 92.80003,151.23056 -1.9999999,86.662131 -1.9999999,86.662131 L 0,620.60547 l 620.60547,0 z"
       transform="translate(61.744232,215.87807)"
       id="path4304"
       inkscape:connector-curvature="0"
       sodipodi:nodetypes="cscccc" />
    <path
       sodipodi:nodetypes="csccccc"
       inkscape:connector-curvature="0"
       id="path4308"
       transform="translate(61.744232,215.87807)"
       d="m 623.60547,87.23589 c 0,0 -108.75148,-2.525006 -275.59482,-0.28282 C 207.68995,88.838822 136.74841,70.484966 114.7761,0.1962203 53.86116,-0.03062763 -1.9999999,-1.3378686 -1.9999999,-1.3378686 L 0,620.60547 l 620.60547,0 z"
       style="opacity:0.98799995;fill:url(#linearGradient4306);fill-opacity:1;stroke:none;stroke-width:20;stroke-linecap:round;stroke-linejoin:round;stroke-miterlimit:4;stroke-dasharray:none;stroke-opacity:1" />
    <path
       style="opacity:0.98799995;fill:url(#linearGradient4306);fill-opacity:1;stroke:none;stroke-width:20;stroke-linecap:round;stroke-linejoin:round;stroke-miterlimit:4;stroke-dasharray:none;stroke-opacity:1"
       d="m 623.60547,29.744512 c 0,0 -40.17503,27.963826 -89.2542,33.551704 C 394.16509,79.257025 322.03015,75.288267 366.26495,0.1962203 305.35001,-0.03062763 -1.9999999,-1.3378686 -1.9999999,-1.3378686 L 0,620.60547 l 620.60547,0 z"
       transform="translate(61.744232,215.87807)"
       id="path4310"
       inkscape:connector-curvature="0"
       sodipodi:nodetypes="csccccc" />
    <rect
       y="62.060608"
       x="62.0606"
       height="620.60608"
       width="620.60602"
       id="rect7970"
       style="display:inline;opacity:0.98799995;fill:url(#linearGradient7996);fill-opacity:1;stroke:none;stroke-width:19.39393806;stroke-linecap:round;stroke-linejoin:round;stroke-miterlimit:4;stroke-dasharray:none;stroke-opacity:1;filter:url(#filter7998)"
       transform="translate(-0.3163681,153.81746)" />
    <rect
       style="display:inline;opacity:0.98799995;fill:url(#linearGradient7178);fill-opacity:1;stroke:none;stroke-width:19.39393806;stroke-linecap:round;stroke-linejoin:round;stroke-miterlimit:4;stroke-dasharray:none;stroke-opacity:1"
       id="rect7168"
       width="620.60602"
       height="620.60608"
       x="62.0606"
       y="62.060608"
       transform="translate(-0.3163681,153.81746)"
       inkscape:export-xdpi="30"
       inkscape:export-ydpi="30" />
    <g
       id="g5807"
       transform="translate(0,1.6152344e-5)">
      <circle
         r="240"
         cy="526.18109"
         cx="372.04724"
         id="path4885"
         style="opacity:0.98799995;fill:#ffffff;fill-opacity:0.33809527;stroke:none;stroke-width:20;stroke-linecap:round;stroke-linejoin:round;stroke-miterlimit:4;stroke-dasharray:none;stroke-opacity:1" />
      <path
         inkscape:connector-curvature="0"
         id="path4904"
         d="m 528.53189,408.78183 c -12.67764,-18.22182 -332.49602,53.49274 -331.56595,74.21598 0.96139,21.42115 51.25678,54.27106 78.80087,86.40769 60.74602,-39.62601 168.73325,-108.99411 171.86555,-104.49198 3.12633,4.49357 -99.35487,81.40963 -157.86312,124.68266 20.70979,37.77659 34.42705,100.7642 53.74602,104.03945 23.46803,3.9786 197.08854,-267.50264 185.01663,-284.8538 z"
         style="opacity:0.98799995;fill:#ffffff;fill-opacity:0.86538463;stroke:none;stroke-width:20;stroke-linecap:round;stroke-linejoin:round;stroke-miterlimit:4;stroke-dasharray:none;stroke-opacity:1" />
    </g>
  </g>
  <g
     inkscape:groupmode="layer"
     id="layer3"
     inkscape:label="Paper"
     style="display:none"
     transform="translate(-62.0606,-62.060608)">
    <g
       style="display:inline"
       id="g7180"
       transform="translate(24.651719,-46.780789)">
      <g
         id="g4827"
         style="display:inline;fill:#505050;fill-opacity:0.14903846;filter:url(#filter4823);enable-background:new"
         transform="matrix(1.0478002,0,0,1.0958736,-18.413748,-142.69807)">
        <path
           inkscape:connector-curvature="0"
           style="opacity:0.98799995;fill:#505050;fill-opacity:0.14903846;stroke:none;stroke-width:1;stroke-linecap:round;stroke-linejoin:round;stroke-miterlimit:4;stroke-dasharray:none;stroke-opacity:1"
           d="m 307.17578,549.32227 c -0.0176,0.0537 -0.0593,0.12291 -0.0664,0.16992 -0.85274,5.62445 -11.63925,79.15433 -21.79297,87.97461 l 69.31445,-51.39844 c -15.63599,-13.17255 -32.0096,-26.26569 -47.45508,-36.74609 z"
           id="path4829" />
        <path
           sodipodi:nodetypes="sscccsss"
           style="opacity:0.98799995;fill:#505050;fill-opacity:0.14903846;stroke:none;stroke-width:1;stroke-linecap:round;stroke-linejoin:round;stroke-miterlimit:4;stroke-dasharray:none;stroke-opacity:1"
           d="m 541.09766,380.09766 c -50.52912,1.29911 -379.39855,97.94307 -387.08204,115.49609 -3.44476,7.86959 67.96838,16.88097 113.32032,32.93359 10.29572,-15.30206 238.27755,-125.95925 232.27539,-116.24414 -12.81598,6.40812 -188.93794,127.02961 -192.42578,137.01368 51.10101,34.68143 112.80136,98.49249 121.66992,95.9121 19.66497,-5.7217 126.70722,-250.13478 115.23795,-263.13631 -0.71683,-0.8126 0.37284,-2.06162 -2.99576,-1.97501 z"
           id="path4831"
           inkscape:connector-curvature="0" />
        <path
           sodipodi:nodetypes="ssscs"
           inkscape:connector-curvature="0"
           id="path4833"
           d="m 307.10935,549.49185 c -0.94202,6.21338 -14.00656,95.3024 -24.94919,88.46869 -9.7677,-6.09997 -18.32514,-104.04962 -14.87042,-109.37507 9.79175,-15.09404 238.33063,-126.02923 232.32137,-116.30263 -12.89664,6.44845 -191.1924,128.5727 -192.50176,137.20901 z"
           inkscape:transform-center-y="-14.177128"
           inkscape:transform-center-x="-15.161453"
           style="opacity:0.98799995;fill:#505050;fill-opacity:0.14903846;stroke:none;stroke-width:1;stroke-linecap:round;stroke-linejoin:round;stroke-miterlimit:4;stroke-dasharray:none;stroke-opacity:1" />
      </g>
      <g
         transform="matrix(1.0223571,0,0,1.0405374,-9.5447008,-120.43893)"
         style="display:inline;fill:#4e4e4e;fill-opacity:0.35576926;filter:url(#filter4823);enable-background:new"
         id="g4763">
        <path
           id="path4765"
           d="m 307.17578,549.32227 c -0.0176,0.0537 -0.0593,0.12291 -0.0664,0.16992 -0.85274,5.62445 -11.63925,79.15433 -21.79297,87.97461 l 69.31445,-51.39844 c -15.63599,-13.17255 -32.0096,-26.26569 -47.45508,-36.74609 z"
           style="opacity:0.98799995;fill:#4e4e4e;fill-opacity:0.35576926;stroke:none;stroke-width:1;stroke-linecap:round;stroke-linejoin:round;stroke-miterlimit:4;stroke-dasharray:none;stroke-opacity:1"
           inkscape:connector-curvature="0" />
        <path
           sodipodi:nodetypes="sscccsss"
           inkscape:connector-curvature="0"
           id="path4767"
           d="m 541.09766,380.09766 c -50.52912,1.29911 -379.39855,97.94307 -387.08204,115.49609 -3.44476,7.86959 67.96838,16.88097 113.32032,32.93359 10.29572,-15.30206 238.27755,-125.95925 232.27539,-116.24414 -12.81598,6.40812 -188.93794,127.02961 -192.42578,137.01368 51.10101,34.68143 112.80136,98.49249 121.66992,95.9121 19.66497,-5.7217 126.74932,-250.92716 115.28005,-263.92869 -0.71683,-0.8126 0.33074,-1.26924 -3.03786,-1.18263 z"
           style="opacity:0.98799995;fill:#4e4e4e;fill-opacity:0.35576926;stroke:none;stroke-width:1;stroke-linecap:round;stroke-linejoin:round;stroke-miterlimit:4;stroke-dasharray:none;stroke-opacity:1" />
        <path
           style="opacity:0.98799995;fill:#4e4e4e;fill-opacity:0.35576926;stroke:none;stroke-width:1;stroke-linecap:round;stroke-linejoin:round;stroke-miterlimit:4;stroke-dasharray:none;stroke-opacity:1"
           inkscape:transform-center-x="-15.161453"
           inkscape:transform-center-y="-14.177128"
           d="m 307.10935,549.49185 c -0.94202,6.21338 -14.00656,95.3024 -24.94919,88.46869 -9.7677,-6.09997 -18.32514,-104.04962 -14.87042,-109.37507 9.79175,-15.09404 238.33063,-126.02923 232.32137,-116.30263 -12.89664,6.44845 -191.1924,128.5727 -192.50176,137.20901 z"
           id="path4769"
           inkscape:connector-curvature="0"
           sodipodi:nodetypes="ssscs" />
      </g>
      <g
         transform="translate(-3.3101355,-106.79517)"
         id="g4758"
         style="display:inline;enable-background:new">
        <path
           inkscape:connector-curvature="0"
           style="opacity:0.98799995;fill:#8b8b8b;fill-opacity:1;stroke:none;stroke-width:1;stroke-linecap:round;stroke-linejoin:round;stroke-miterlimit:4;stroke-dasharray:none;stroke-opacity:1"
           d="m 307.17578,549.32227 c -0.0176,0.0537 -0.0593,0.12291 -0.0664,0.16992 -0.85274,5.62445 -11.63925,79.15433 -21.79297,87.97461 l 69.31445,-51.39844 c -15.63599,-13.17255 -32.0096,-26.26569 -47.45508,-36.74609 z"
           id="rect4201" />
        <path
           inkscape:connector-curvature="0"
           style="opacity:0.98799995;fill:#ffffff;fill-opacity:1;stroke:none;stroke-width:1;stroke-linecap:round;stroke-linejoin:round;stroke-miterlimit:4;stroke-dasharray:none;stroke-opacity:1"
           d="m 541.09766,380.09766 c -50.52912,1.29911 -379.39855,97.94307 -387.08204,115.49609 -3.44476,7.86959 67.96838,16.88097 113.32032,32.93359 10.29572,-15.30206 238.27755,-125.95925 232.27539,-116.24414 -12.81598,6.40812 -188.93794,127.02961 -192.42578,137.01368 51.10101,34.68143 112.80136,98.49249 121.66992,95.9121 19.66497,-5.7217 129.92825,-251.04729 118.45898,-264.04882 -0.71683,-0.8126 -2.84819,-1.14911 -6.21679,-1.0625 z"
           id="path4177" />
        <path
           sodipodi:nodetypes="ssscs"
           inkscape:connector-curvature="0"
           id="path4191"
           d="m 307.10935,549.49185 c -0.94202,6.21338 -14.00656,95.3024 -24.94919,88.46869 -9.7677,-6.09997 -18.32514,-104.04962 -14.87042,-109.37507 9.79175,-15.09404 238.33063,-126.02923 232.32137,-116.30263 -12.89664,6.44845 -191.1924,128.5727 -192.50176,137.20901 z"
           inkscape:transform-center-y="-14.177128"
           inkscape:transform-center-x="-15.161453"
           style="opacity:0.98799995;fill:#cacaca;fill-opacity:1;stroke:none;stroke-width:1;stroke-linecap:round;stroke-linejoin:round;stroke-miterlimit:4;stroke-dasharray:none;stroke-opacity:1" />
      </g>
    </g>
  </g>
  <g
     inkscape:label="TopDrawing"
     inkscape:groupmode="layer"
     id="layer1"
     transform="translate(-61.744232,-215.87807)"
     style="display:none">
    <text
       xml:space="preserve"
       style="font-style:normal;font-weight:normal;font-size:39.5509491px;line-height:125%;font-family:sans-serif;letter-spacing:0px;word-spacing:0px;fill:#000000;fill-opacity:0.54545456;stroke:none;stroke-width:1px;stroke-linecap:butt;stroke-linejoin:miter;stroke-opacity:1"
       x="-414.27426"
       y="862.26923"
       id="text4506"
       sodipodi:linespacing="125%"
       transform="matrix(0.86580213,-0.87486689,0.89725201,0.24835227,0,0)"><tspan
         sodipodi:role="line"
         id="tspan4508"
         x="-414.27426"
         y="862.26923"
         style="font-style:oblique;font-variant:normal;font-weight:bold;font-stretch:normal;font-family:Purisa;-inkscape-font-specification:'Purisa Bold Oblique';fill:#000000;fill-opacity:0.54545456">i  Qt</tspan></text>
    <path
       style="fill:#ea385e;fill-opacity:1;fill-rule:evenodd;stroke:none;stroke-width:1px;stroke-linecap:butt;stroke-linejoin:miter;stroke-opacity:1"
       d="m 460.72183,554.60839 c -18.25309,2.71984 -32.63729,4.15585 -44.22052,-3.89789 -5.21247,-3.6242 -12.49674,-15.56593 -7.34559,-21.7744 4.5864,-5.5278 10.70119,-6.15279 15.11687,-4.17266 0,0 -0.86255,-9.58361 6.21549,-12.60513 4.8628,-2.07586 11.64631,0.0936 15.6659,3.41082 10.49991,8.66522 14.56785,39.03926 14.56785,39.03926 z"
       id="path4510"
       inkscape:connector-curvature="0"
       sodipodi:nodetypes="csscssc" />
  </g>
</svg>
